<mxfile host="65bd71144e">
    <diagram id="l272HLcTk70JHE9cgWLg" name="Grid Traveller">
        <mxGraphModel dx="1152" dy="783" grid="1" gridSize="10" guides="1" tooltips="1" connect="1" arrows="1" fold="1" page="1" pageScale="1" pageWidth="850" pageHeight="1100" math="0" shadow="0">
            <root>
                <mxCell id="YErnQJn7w7ZOjYczLOwH-0"/>
                <mxCell id="YErnQJn7w7ZOjYczLOwH-1" parent="YErnQJn7w7ZOjYczLOwH-0"/>
                <mxCell id="YErnQJn7w7ZOjYczLOwH-23" style="edgeStyle=none;html=1;exitX=0;exitY=1;exitDx=0;exitDy=0;entryX=1;entryY=0;entryDx=0;entryDy=0;" edge="1" parent="YErnQJn7w7ZOjYczLOwH-1" source="YErnQJn7w7ZOjYczLOwH-16" target="YErnQJn7w7ZOjYczLOwH-17">
                    <mxGeometry relative="1" as="geometry"/>
                </mxCell>
                <mxCell id="YErnQJn7w7ZOjYczLOwH-24" style="edgeStyle=none;html=1;exitX=1;exitY=1;exitDx=0;exitDy=0;entryX=0;entryY=0;entryDx=0;entryDy=0;" edge="1" parent="YErnQJn7w7ZOjYczLOwH-1" source="YErnQJn7w7ZOjYczLOwH-16" target="YErnQJn7w7ZOjYczLOwH-18">
                    <mxGeometry relative="1" as="geometry"/>
                </mxCell>
                <mxCell id="YErnQJn7w7ZOjYczLOwH-16" value="2,3" style="ellipse;whiteSpace=wrap;html=1;aspect=fixed;fillColor=#a0522d;strokeColor=#6D1F00;fontColor=#ffffff;" vertex="1" parent="YErnQJn7w7ZOjYczLOwH-1">
                    <mxGeometry x="240" width="40" height="40" as="geometry"/>
                </mxCell>
                <mxCell id="YErnQJn7w7ZOjYczLOwH-27" style="edgeStyle=none;html=1;exitX=1;exitY=1;exitDx=0;exitDy=0;entryX=0;entryY=0;entryDx=0;entryDy=0;" edge="1" parent="YErnQJn7w7ZOjYczLOwH-1" source="YErnQJn7w7ZOjYczLOwH-17" target="YErnQJn7w7ZOjYczLOwH-21">
                    <mxGeometry relative="1" as="geometry"/>
                </mxCell>
                <mxCell id="YErnQJn7w7ZOjYczLOwH-28" style="edgeStyle=none;html=1;exitX=0;exitY=1;exitDx=0;exitDy=0;" edge="1" parent="YErnQJn7w7ZOjYczLOwH-1" source="YErnQJn7w7ZOjYczLOwH-17" target="YErnQJn7w7ZOjYczLOwH-22">
                    <mxGeometry relative="1" as="geometry"/>
                </mxCell>
                <mxCell id="YErnQJn7w7ZOjYczLOwH-17" value="1,3" style="ellipse;whiteSpace=wrap;html=1;aspect=fixed;fillColor=#a0522d;fontColor=#ffffff;strokeColor=#6D1F00;" vertex="1" parent="YErnQJn7w7ZOjYczLOwH-1">
                    <mxGeometry x="80" y="80" width="40" height="40" as="geometry"/>
                </mxCell>
                <mxCell id="YErnQJn7w7ZOjYczLOwH-25" style="edgeStyle=none;html=1;exitX=0;exitY=1;exitDx=0;exitDy=0;" edge="1" parent="YErnQJn7w7ZOjYczLOwH-1" source="YErnQJn7w7ZOjYczLOwH-18" target="YErnQJn7w7ZOjYczLOwH-19">
                    <mxGeometry relative="1" as="geometry"/>
                </mxCell>
                <mxCell id="YErnQJn7w7ZOjYczLOwH-26" style="edgeStyle=none;html=1;exitX=1;exitY=1;exitDx=0;exitDy=0;entryX=0;entryY=0;entryDx=0;entryDy=0;" edge="1" parent="YErnQJn7w7ZOjYczLOwH-1" source="YErnQJn7w7ZOjYczLOwH-18" target="YErnQJn7w7ZOjYczLOwH-20">
                    <mxGeometry relative="1" as="geometry"/>
                </mxCell>
                <mxCell id="YErnQJn7w7ZOjYczLOwH-18" value="2,2" style="ellipse;whiteSpace=wrap;html=1;aspect=fixed;fillColor=#a0522d;fontColor=#ffffff;strokeColor=#6D1F00;" vertex="1" parent="YErnQJn7w7ZOjYczLOwH-1">
                    <mxGeometry x="400" y="80" width="40" height="40" as="geometry"/>
                </mxCell>
                <mxCell id="YErnQJn7w7ZOjYczLOwH-37" style="edgeStyle=none;html=1;exitX=1;exitY=1;exitDx=0;exitDy=0;entryX=0.5;entryY=0;entryDx=0;entryDy=0;" edge="1" parent="YErnQJn7w7ZOjYczLOwH-1" source="YErnQJn7w7ZOjYczLOwH-19" target="YErnQJn7w7ZOjYczLOwH-32">
                    <mxGeometry relative="1" as="geometry"/>
                </mxCell>
                <mxCell id="YErnQJn7w7ZOjYczLOwH-38" style="edgeStyle=none;html=1;exitX=0;exitY=1;exitDx=0;exitDy=0;entryX=0.5;entryY=0;entryDx=0;entryDy=0;" edge="1" parent="YErnQJn7w7ZOjYczLOwH-1" source="YErnQJn7w7ZOjYczLOwH-19" target="YErnQJn7w7ZOjYczLOwH-31">
                    <mxGeometry relative="1" as="geometry"/>
                </mxCell>
                <mxCell id="YErnQJn7w7ZOjYczLOwH-19" value="1,2" style="ellipse;whiteSpace=wrap;html=1;aspect=fixed;fillColor=#a0522d;fontColor=#ffffff;strokeColor=#6D1F00;" vertex="1" parent="YErnQJn7w7ZOjYczLOwH-1">
                    <mxGeometry x="320" y="160" width="40" height="40" as="geometry"/>
                </mxCell>
                <mxCell id="YErnQJn7w7ZOjYczLOwH-35" style="edgeStyle=none;html=1;exitX=1;exitY=1;exitDx=0;exitDy=0;entryX=0.5;entryY=0;entryDx=0;entryDy=0;" edge="1" parent="YErnQJn7w7ZOjYczLOwH-1" source="YErnQJn7w7ZOjYczLOwH-20" target="YErnQJn7w7ZOjYczLOwH-34">
                    <mxGeometry relative="1" as="geometry"/>
                </mxCell>
                <mxCell id="YErnQJn7w7ZOjYczLOwH-36" style="edgeStyle=none;html=1;exitX=0;exitY=1;exitDx=0;exitDy=0;entryX=0.5;entryY=0;entryDx=0;entryDy=0;" edge="1" parent="YErnQJn7w7ZOjYczLOwH-1" source="YErnQJn7w7ZOjYczLOwH-20" target="YErnQJn7w7ZOjYczLOwH-33">
                    <mxGeometry relative="1" as="geometry"/>
                </mxCell>
                <mxCell id="YErnQJn7w7ZOjYczLOwH-20" value="2,1" style="ellipse;whiteSpace=wrap;html=1;aspect=fixed;fillColor=#a0522d;fontColor=#ffffff;strokeColor=#6D1F00;" vertex="1" parent="YErnQJn7w7ZOjYczLOwH-1">
                    <mxGeometry x="480" y="160" width="40" height="40" as="geometry"/>
                </mxCell>
                <mxCell id="YErnQJn7w7ZOjYczLOwH-39" style="edgeStyle=none;html=1;exitX=1;exitY=1;exitDx=0;exitDy=0;entryX=0.5;entryY=0;entryDx=0;entryDy=0;" edge="1" parent="YErnQJn7w7ZOjYczLOwH-1" source="YErnQJn7w7ZOjYczLOwH-21" target="YErnQJn7w7ZOjYczLOwH-30">
                    <mxGeometry relative="1" as="geometry"/>
                </mxCell>
                <mxCell id="YErnQJn7w7ZOjYczLOwH-40" style="edgeStyle=none;html=1;exitX=0;exitY=1;exitDx=0;exitDy=0;entryX=0.725;entryY=0;entryDx=0;entryDy=0;entryPerimeter=0;" edge="1" parent="YErnQJn7w7ZOjYczLOwH-1" source="YErnQJn7w7ZOjYczLOwH-21" target="YErnQJn7w7ZOjYczLOwH-29">
                    <mxGeometry relative="1" as="geometry"/>
                </mxCell>
                <mxCell id="YErnQJn7w7ZOjYczLOwH-21" value="1,2" style="ellipse;whiteSpace=wrap;html=1;aspect=fixed;fillColor=#a0522d;fontColor=#ffffff;strokeColor=#6D1F00;" vertex="1" parent="YErnQJn7w7ZOjYczLOwH-1">
                    <mxGeometry x="160" y="160" width="40" height="40" as="geometry"/>
                </mxCell>
                <mxCell id="YErnQJn7w7ZOjYczLOwH-22" value="0,3" style="ellipse;whiteSpace=wrap;html=1;aspect=fixed;fillColor=#a0522d;fontColor=#ffffff;strokeColor=#6D1F00;" vertex="1" parent="YErnQJn7w7ZOjYczLOwH-1">
                    <mxGeometry y="160" width="40" height="40" as="geometry"/>
                </mxCell>
                <mxCell id="YErnQJn7w7ZOjYczLOwH-29" value="0,2" style="ellipse;whiteSpace=wrap;html=1;aspect=fixed;fillColor=#a0522d;fontColor=#ffffff;strokeColor=#6D1F00;" vertex="1" parent="YErnQJn7w7ZOjYczLOwH-1">
                    <mxGeometry x="120" y="240" width="40" height="40" as="geometry"/>
                </mxCell>
                <mxCell id="YErnQJn7w7ZOjYczLOwH-30" value="1,1" style="ellipse;whiteSpace=wrap;html=1;aspect=fixed;fillColor=#a0522d;fontColor=#ffffff;strokeColor=#6D1F00;" vertex="1" parent="YErnQJn7w7ZOjYczLOwH-1">
                    <mxGeometry x="200" y="240" width="40" height="40" as="geometry"/>
                </mxCell>
                <mxCell id="YErnQJn7w7ZOjYczLOwH-31" value="0,2" style="ellipse;whiteSpace=wrap;html=1;aspect=fixed;fillColor=#a0522d;fontColor=#ffffff;strokeColor=#6D1F00;" vertex="1" parent="YErnQJn7w7ZOjYczLOwH-1">
                    <mxGeometry x="280" y="240" width="40" height="40" as="geometry"/>
                </mxCell>
                <mxCell id="YErnQJn7w7ZOjYczLOwH-32" value="1,1" style="ellipse;whiteSpace=wrap;html=1;aspect=fixed;fillColor=#a0522d;fontColor=#ffffff;strokeColor=#6D1F00;" vertex="1" parent="YErnQJn7w7ZOjYczLOwH-1">
                    <mxGeometry x="360" y="240" width="40" height="40" as="geometry"/>
                </mxCell>
                <mxCell id="YErnQJn7w7ZOjYczLOwH-33" value="1,1" style="ellipse;whiteSpace=wrap;html=1;aspect=fixed;fillColor=#a0522d;fontColor=#ffffff;strokeColor=#6D1F00;" vertex="1" parent="YErnQJn7w7ZOjYczLOwH-1">
                    <mxGeometry x="440" y="240" width="40" height="40" as="geometry"/>
                </mxCell>
                <mxCell id="YErnQJn7w7ZOjYczLOwH-34" value="0,0" style="ellipse;whiteSpace=wrap;html=1;aspect=fixed;fillColor=#a0522d;fontColor=#ffffff;strokeColor=#6D1F00;" vertex="1" parent="YErnQJn7w7ZOjYczLOwH-1">
                    <mxGeometry x="520" y="240" width="40" height="40" as="geometry"/>
                </mxCell>
                <mxCell id="YErnQJn7w7ZOjYczLOwH-41" value="&lt;font style=&quot;font-size: 19px&quot;&gt;&lt;b&gt;gridTraveler(m,n)&lt;/b&gt;&lt;/font&gt;" style="text;html=1;strokeColor=none;fillColor=none;align=center;verticalAlign=middle;whiteSpace=wrap;rounded=0;fontSize=16;" vertex="1" parent="YErnQJn7w7ZOjYczLOwH-1">
                    <mxGeometry x="640" y="30" width="170" height="30" as="geometry"/>
                </mxCell>
                <mxCell id="YErnQJn7w7ZOjYczLOwH-43" value="m,n" style="ellipse;whiteSpace=wrap;html=1;aspect=fixed;fillColor=#6d8764;strokeColor=#3A5431;fontColor=#ffffff;" vertex="1" parent="YErnQJn7w7ZOjYczLOwH-1">
                    <mxGeometry x="695" y="100" width="60" height="60" as="geometry"/>
                </mxCell>
                <mxCell id="YErnQJn7w7ZOjYczLOwH-44" value="m : { 1, 2, ..., m }&lt;br&gt;n : { 1, 2, ..., n }&lt;br&gt;&lt;b&gt;&lt;font color=&quot;#ff9933&quot;&gt;m * n possible combinations&lt;/font&gt;&lt;/b&gt;" style="text;html=1;strokeColor=none;fillColor=none;align=center;verticalAlign=middle;whiteSpace=wrap;rounded=0;fontSize=16;" vertex="1" parent="YErnQJn7w7ZOjYczLOwH-1">
                    <mxGeometry x="610" y="200" width="230" height="75" as="geometry"/>
                </mxCell>
                <mxCell id="81gGb_QQPq779r8EL9U6-0" value="" style="shape=flexArrow;endArrow=classic;html=1;fillColor=#fa6800;strokeColor=#C73500;" edge="1" parent="YErnQJn7w7ZOjYczLOwH-1">
                    <mxGeometry width="50" height="50" relative="1" as="geometry">
                        <mxPoint x="550" y="129.5" as="sourcePoint"/>
                        <mxPoint x="650" y="129.5" as="targetPoint"/>
                    </mxGeometry>
                </mxCell>
            </root>
        </mxGraphModel>
    </diagram>
    <diagram id="5BGW6Rc_hAV8zGi85tKK" name="Fibonacci">
        <mxGraphModel dx="1374" dy="783" grid="1" gridSize="10" guides="1" tooltips="1" connect="1" arrows="1" fold="1" page="1" pageScale="1" pageWidth="850" pageHeight="1100" math="0" shadow="0">
            <root>
                <mxCell id="0"/>
                <mxCell id="1" parent="0"/>
                <mxCell id="20" style="edgeStyle=none;html=1;exitX=0;exitY=1;exitDx=0;exitDy=0;entryX=1;entryY=0;entryDx=0;entryDy=0;" parent="1" source="2" target="3" edge="1">
                    <mxGeometry relative="1" as="geometry"/>
                </mxCell>
                <mxCell id="21" style="edgeStyle=none;html=1;exitX=1;exitY=1;exitDx=0;exitDy=0;entryX=0;entryY=0;entryDx=0;entryDy=0;" parent="1" source="2" target="4" edge="1">
                    <mxGeometry relative="1" as="geometry"/>
                </mxCell>
                <mxCell id="2" value="6" style="ellipse;whiteSpace=wrap;html=1;aspect=fixed;fillColor=#1ba1e2;fontColor=#ffffff;strokeColor=#006EAF;" parent="1" vertex="1">
                    <mxGeometry x="240" width="40" height="40" as="geometry"/>
                </mxCell>
                <mxCell id="31" style="edgeStyle=none;html=1;exitX=0;exitY=1;exitDx=0;exitDy=0;entryX=1;entryY=0;entryDx=0;entryDy=0;" parent="1" source="3" target="9" edge="1">
                    <mxGeometry relative="1" as="geometry"/>
                </mxCell>
                <mxCell id="32" style="edgeStyle=none;html=1;exitX=1;exitY=1;exitDx=0;exitDy=0;entryX=0;entryY=0;entryDx=0;entryDy=0;" parent="1" source="3" target="8" edge="1">
                    <mxGeometry relative="1" as="geometry"/>
                </mxCell>
                <mxCell id="3" value="4" style="ellipse;whiteSpace=wrap;html=1;aspect=fixed;fillColor=#1ba1e2;fontColor=#ffffff;strokeColor=#006EAF;" parent="1" vertex="1">
                    <mxGeometry x="80" y="80" width="40" height="40" as="geometry"/>
                </mxCell>
                <mxCell id="22" style="edgeStyle=none;html=1;exitX=0;exitY=1;exitDx=0;exitDy=0;entryX=1;entryY=0;entryDx=0;entryDy=0;" parent="1" source="4" target="5" edge="1">
                    <mxGeometry relative="1" as="geometry"/>
                </mxCell>
                <mxCell id="23" style="edgeStyle=none;html=1;exitX=1;exitY=1;exitDx=0;exitDy=0;entryX=0;entryY=0;entryDx=0;entryDy=0;" parent="1" source="4" target="7" edge="1">
                    <mxGeometry relative="1" as="geometry"/>
                </mxCell>
                <mxCell id="4" value="5" style="ellipse;whiteSpace=wrap;html=1;aspect=fixed;fillColor=#1ba1e2;fontColor=#ffffff;strokeColor=#006EAF;" parent="1" vertex="1">
                    <mxGeometry x="400" y="80" width="40" height="40" as="geometry"/>
                </mxCell>
                <mxCell id="24" style="edgeStyle=none;html=1;exitX=0;exitY=1;exitDx=0;exitDy=0;entryX=0.5;entryY=0;entryDx=0;entryDy=0;" parent="1" source="5" target="14" edge="1">
                    <mxGeometry relative="1" as="geometry"/>
                </mxCell>
                <mxCell id="25" style="edgeStyle=none;html=1;exitX=1;exitY=1;exitDx=0;exitDy=0;entryX=0.5;entryY=0;entryDx=0;entryDy=0;" parent="1" source="5" target="15" edge="1">
                    <mxGeometry relative="1" as="geometry"/>
                </mxCell>
                <mxCell id="5" value="3" style="ellipse;whiteSpace=wrap;html=1;aspect=fixed;fillColor=#1ba1e2;fontColor=#ffffff;strokeColor=#006EAF;" parent="1" vertex="1">
                    <mxGeometry x="320" y="160" width="40" height="40" as="geometry"/>
                </mxCell>
                <mxCell id="27" style="edgeStyle=none;html=1;exitX=0;exitY=1;exitDx=0;exitDy=0;entryX=0.5;entryY=0;entryDx=0;entryDy=0;" parent="1" source="7" target="16" edge="1">
                    <mxGeometry relative="1" as="geometry"/>
                </mxCell>
                <mxCell id="28" style="edgeStyle=none;html=1;exitX=1;exitY=1;exitDx=0;exitDy=0;entryX=0.5;entryY=0;entryDx=0;entryDy=0;" parent="1" source="7" target="17" edge="1">
                    <mxGeometry relative="1" as="geometry"/>
                </mxCell>
                <mxCell id="7" value="4" style="ellipse;whiteSpace=wrap;html=1;aspect=fixed;fillColor=#1ba1e2;fontColor=#ffffff;strokeColor=#006EAF;" parent="1" vertex="1">
                    <mxGeometry x="480" y="160" width="40" height="40" as="geometry"/>
                </mxCell>
                <mxCell id="33" style="edgeStyle=none;html=1;exitX=0;exitY=1;exitDx=0;exitDy=0;entryX=0.675;entryY=-0.075;entryDx=0;entryDy=0;entryPerimeter=0;" parent="1" source="8" target="12" edge="1">
                    <mxGeometry relative="1" as="geometry"/>
                </mxCell>
                <mxCell id="34" style="edgeStyle=none;html=1;exitX=1;exitY=1;exitDx=0;exitDy=0;entryX=0.5;entryY=0;entryDx=0;entryDy=0;" parent="1" source="8" target="13" edge="1">
                    <mxGeometry relative="1" as="geometry"/>
                </mxCell>
                <mxCell id="8" value="3" style="ellipse;whiteSpace=wrap;html=1;aspect=fixed;fillColor=#1ba1e2;fontColor=#ffffff;strokeColor=#006EAF;" parent="1" vertex="1">
                    <mxGeometry x="160" y="160" width="40" height="40" as="geometry"/>
                </mxCell>
                <mxCell id="9" value="2" style="ellipse;whiteSpace=wrap;html=1;aspect=fixed;fillColor=#1ba1e2;fontColor=#ffffff;strokeColor=#006EAF;" parent="1" vertex="1">
                    <mxGeometry y="160" width="40" height="40" as="geometry"/>
                </mxCell>
                <mxCell id="12" value="1" style="ellipse;whiteSpace=wrap;html=1;aspect=fixed;fillColor=#1ba1e2;fontColor=#ffffff;strokeColor=#006EAF;" parent="1" vertex="1">
                    <mxGeometry x="120" y="240" width="40" height="40" as="geometry"/>
                </mxCell>
                <mxCell id="13" value="2" style="ellipse;whiteSpace=wrap;html=1;aspect=fixed;fillColor=#1ba1e2;fontColor=#ffffff;strokeColor=#006EAF;" parent="1" vertex="1">
                    <mxGeometry x="200" y="240" width="40" height="40" as="geometry"/>
                </mxCell>
                <mxCell id="14" value="1" style="ellipse;whiteSpace=wrap;html=1;aspect=fixed;fillColor=#1ba1e2;fontColor=#ffffff;strokeColor=#006EAF;" parent="1" vertex="1">
                    <mxGeometry x="280" y="240" width="40" height="40" as="geometry"/>
                </mxCell>
                <mxCell id="15" value="2" style="ellipse;whiteSpace=wrap;html=1;aspect=fixed;fillColor=#1ba1e2;fontColor=#ffffff;strokeColor=#006EAF;" parent="1" vertex="1">
                    <mxGeometry x="360" y="240" width="40" height="40" as="geometry"/>
                </mxCell>
                <mxCell id="16" value="2" style="ellipse;whiteSpace=wrap;html=1;aspect=fixed;fillColor=#1ba1e2;fontColor=#ffffff;strokeColor=#006EAF;" parent="1" vertex="1">
                    <mxGeometry x="440" y="240" width="40" height="40" as="geometry"/>
                </mxCell>
                <mxCell id="29" style="edgeStyle=none;html=1;exitX=0;exitY=1;exitDx=0;exitDy=0;entryX=0.5;entryY=0;entryDx=0;entryDy=0;" parent="1" source="17" target="18" edge="1">
                    <mxGeometry relative="1" as="geometry"/>
                </mxCell>
                <mxCell id="30" style="edgeStyle=none;html=1;exitX=1;exitY=1;exitDx=0;exitDy=0;entryX=0.5;entryY=0;entryDx=0;entryDy=0;" parent="1" source="17" target="19" edge="1">
                    <mxGeometry relative="1" as="geometry"/>
                </mxCell>
                <mxCell id="17" value="3" style="ellipse;whiteSpace=wrap;html=1;aspect=fixed;fillColor=#1ba1e2;fontColor=#ffffff;strokeColor=#006EAF;" parent="1" vertex="1">
                    <mxGeometry x="520" y="240" width="40" height="40" as="geometry"/>
                </mxCell>
                <mxCell id="18" value="1" style="ellipse;whiteSpace=wrap;html=1;aspect=fixed;fillColor=#1ba1e2;fontColor=#ffffff;strokeColor=#006EAF;" parent="1" vertex="1">
                    <mxGeometry x="480" y="320" width="40" height="40" as="geometry"/>
                </mxCell>
                <mxCell id="19" value="2" style="ellipse;whiteSpace=wrap;html=1;aspect=fixed;fillColor=#1ba1e2;fontColor=#ffffff;strokeColor=#006EAF;" parent="1" vertex="1">
                    <mxGeometry x="560" y="320" width="40" height="40" as="geometry"/>
                </mxCell>
                <mxCell id="93" value="2" style="ellipse;whiteSpace=wrap;html=1;aspect=fixed;fillColor=#60a917;fontColor=#ffffff;strokeColor=#2D7600;" parent="1" vertex="1">
                    <mxGeometry x="630" y="320" width="40" height="40" as="geometry"/>
                </mxCell>
                <mxCell id="94" value="1" style="ellipse;whiteSpace=wrap;html=1;aspect=fixed;fillColor=#60a917;fontColor=#ffffff;strokeColor=#2D7600;" parent="1" vertex="1">
                    <mxGeometry x="700" y="320" width="40" height="40" as="geometry"/>
                </mxCell>
                <mxCell id="112" style="edgeStyle=none;html=1;exitX=0;exitY=1;exitDx=0;exitDy=0;entryX=0.5;entryY=0;entryDx=0;entryDy=0;" parent="1" source="95" target="93" edge="1">
                    <mxGeometry relative="1" as="geometry"/>
                </mxCell>
                <mxCell id="113" style="edgeStyle=none;html=1;exitX=1;exitY=1;exitDx=0;exitDy=0;entryX=0.5;entryY=0;entryDx=0;entryDy=0;" parent="1" source="95" target="94" edge="1">
                    <mxGeometry relative="1" as="geometry"/>
                </mxCell>
                <mxCell id="95" value="3" style="ellipse;whiteSpace=wrap;html=1;aspect=fixed;fillColor=#60a917;fontColor=#ffffff;strokeColor=#2D7600;" parent="1" vertex="1">
                    <mxGeometry x="660" y="240" width="40" height="40" as="geometry"/>
                </mxCell>
                <mxCell id="103" value="2" style="ellipse;whiteSpace=wrap;html=1;aspect=fixed;fillColor=#60a917;fontColor=#ffffff;strokeColor=#2D7600;" parent="1" vertex="1">
                    <mxGeometry x="730" y="240" width="40" height="40" as="geometry"/>
                </mxCell>
                <mxCell id="111" style="edgeStyle=none;html=1;exitX=0;exitY=1;exitDx=0;exitDy=0;entryX=0.725;entryY=-0.05;entryDx=0;entryDy=0;entryPerimeter=0;" parent="1" source="104" target="95" edge="1">
                    <mxGeometry relative="1" as="geometry"/>
                </mxCell>
                <mxCell id="114" style="edgeStyle=none;html=1;exitX=1;exitY=1;exitDx=0;exitDy=0;entryX=0.5;entryY=0;entryDx=0;entryDy=0;" parent="1" source="104" target="103" edge="1">
                    <mxGeometry relative="1" as="geometry"/>
                </mxCell>
                <mxCell id="104" value="4" style="ellipse;whiteSpace=wrap;html=1;aspect=fixed;fillColor=#60a917;fontColor=#ffffff;strokeColor=#2D7600;" parent="1" vertex="1">
                    <mxGeometry x="700" y="160" width="40" height="40" as="geometry"/>
                </mxCell>
                <mxCell id="105" value="3" style="ellipse;whiteSpace=wrap;html=1;aspect=fixed;fillColor=#60a917;fontColor=#ffffff;strokeColor=#2D7600;" parent="1" vertex="1">
                    <mxGeometry x="770" y="160" width="40" height="40" as="geometry"/>
                </mxCell>
                <mxCell id="110" style="edgeStyle=none;html=1;exitX=0;exitY=1;exitDx=0;exitDy=0;entryX=0.725;entryY=-0.025;entryDx=0;entryDy=0;entryPerimeter=0;" parent="1" source="106" target="104" edge="1">
                    <mxGeometry relative="1" as="geometry"/>
                </mxCell>
                <mxCell id="115" style="edgeStyle=none;html=1;exitX=1;exitY=1;exitDx=0;exitDy=0;entryX=0.5;entryY=0;entryDx=0;entryDy=0;" parent="1" source="106" target="105" edge="1">
                    <mxGeometry relative="1" as="geometry"/>
                </mxCell>
                <mxCell id="106" value="5" style="ellipse;whiteSpace=wrap;html=1;aspect=fixed;fillColor=#60a917;fontColor=#ffffff;strokeColor=#2D7600;" parent="1" vertex="1">
                    <mxGeometry x="740" y="80" width="40" height="40" as="geometry"/>
                </mxCell>
                <mxCell id="107" value="4" style="ellipse;whiteSpace=wrap;html=1;aspect=fixed;fillColor=#60a917;fontColor=#ffffff;strokeColor=#2D7600;" parent="1" vertex="1">
                    <mxGeometry x="810" y="80" width="40" height="40" as="geometry"/>
                </mxCell>
                <mxCell id="109" style="edgeStyle=none;html=1;exitX=0;exitY=1;exitDx=0;exitDy=0;entryX=0.5;entryY=0;entryDx=0;entryDy=0;" parent="1" source="108" target="106" edge="1">
                    <mxGeometry relative="1" as="geometry"/>
                </mxCell>
                <mxCell id="116" style="edgeStyle=none;html=1;exitX=1;exitY=1;exitDx=0;exitDy=0;entryX=0.5;entryY=0;entryDx=0;entryDy=0;" parent="1" source="108" target="107" edge="1">
                    <mxGeometry relative="1" as="geometry"/>
                </mxCell>
                <mxCell id="108" value="6" style="ellipse;whiteSpace=wrap;html=1;aspect=fixed;fillColor=#60a917;fontColor=#ffffff;strokeColor=#2D7600;" parent="1" vertex="1">
                    <mxGeometry x="780" width="40" height="40" as="geometry"/>
                </mxCell>
                <mxCell id="117" value="" style="shape=flexArrow;endArrow=classic;html=1;fillColor=#fa6800;strokeColor=#C73500;" parent="1" edge="1">
                    <mxGeometry width="50" height="50" relative="1" as="geometry">
                        <mxPoint x="560" y="179.5" as="sourcePoint"/>
                        <mxPoint x="660" y="179.5" as="targetPoint"/>
                    </mxGeometry>
                </mxCell>
            </root>
        </mxGraphModel>
    </diagram>
</mxfile>